<svg xmlns="http://www.w3.org/2000/svg" width="24" height="24" fill="none" viewBox="0 0 24 24"><path stroke="#737373" stroke-linecap="round" stroke-linejoin="round" stroke-width="1.5" d="M17 10.25a3.25 3.25 0 1 1 0-6.5 3.25 3.25 0 0 1 0 6.5ZM4 3.75h6a.25.25 0 0 1 .25.25v6a.25.25 0 0 1-.25.25H4a.25.25 0 0 1-.25-.25V4A.25.25 0 0 1 4 3.75ZM14 13.75h6a.25.25 0 0 1 .25.25v6a.25.25 0 0 1-.25.25h-6a.25.25 0 0 1-.25-.25v-6a.25.25 0 0 1 .25-.25ZM4 13.75h6a.25.25 0 0 1 .25.25v6a.25.25 0 0 1-.25.25H4a.25.25 0 0 1-.25-.25v-6a.25.25 0 0 1 .25-.25Z"/></svg>