<svg xmlns="http://www.w3.org/2000/svg" width="24" height="24" fill="none" viewBox="0 0 24 24"><path fill="#FFC700" stroke="#303030" stroke-width="1.5" d="m8.5 16.616-.008.002c-.539.151-1.159.232-1.877.232-.708 0-1.338-.08-1.877-.232-.547-.154-.985-.365-1.318-.625l-.007-.006a2.55 2.55 0 0 1-.777-.972l-.006-.012c-.18-.374-.28-.841-.28-1.403 0-.563.1-1.03.28-1.404.192-.397.454-.726.787-.987a3.677 3.677 0 0 1 1.31-.625l.011-.003c.539-.15 1.17-.231 1.877-.231.708 0 1.339.08 1.877.231.543.153.972.363 1.308.626.334.26.593.587.773.975.179.396.277.86.277 1.418 0 .561-.1 1.034-.276 1.415-.18.389-.44.716-.774.978-.34.265-.778.483-1.3.623ZM19.3 16.616l-.01.002c-.538.151-1.158.232-1.876.232-.708 0-1.338-.08-1.877-.232-.547-.154-.985-.365-1.318-.625l-.007-.006a2.55 2.55 0 0 1-.777-.972l-.006-.012c-.18-.374-.28-.841-.28-1.403 0-.563.1-1.03.28-1.404.192-.397.454-.726.787-.987a3.678 3.678 0 0 1 1.31-.625l.011-.003c.539-.15 1.17-.231 1.877-.231.708 0 1.338.08 1.877.231.543.153.972.363 1.308.626.334.26.593.587.773.975.178.396.276.86.276 1.418 0 .561-.1 1.034-.275 1.415-.18.389-.44.716-.774.978-.34.265-.779.483-1.3.623Z"/><path fill="#303030" d="m20.642 9-.927-.734c-.832-.622-1.94-.917-3.037-.805l-1.674.173-.205-1.427 1.675-.173c1.59-.163 3.18.265 4.373 1.162l.012.01.94.744L20.642 9Z"/></svg>